<svg xmlns="http://www.w3.org/2000/svg" width="50" height="45" viewBox="0 0 50 45" fill="none">
<path d="M42.8529 44.948C46.6722 44.948 49.7683 41.8519 49.7683 38.0326C49.7683 34.2133 46.6722 31.1172 42.8529 31.1172C39.0336 31.1172 35.9375 34.2133 35.9375 38.0326C35.9375 41.8519 39.0336 44.948 42.8529 44.948Z" fill="url(#paint0_linear_9126_14787)"/>
<path d="M12.8359 34.4713C12.5634 33.9543 12.4264 33.3768 12.4377 32.7926C12.4489 32.2083 12.6081 31.6365 12.9003 31.1305C13.1925 30.6244 13.6082 30.2007 14.1085 29.8989C14.6089 29.5971 15.1776 29.4271 15.7615 29.4046V29.3984C16.9986 29.423 18.2197 29.1153 19.2973 28.5074C20.375 27.8994 21.2698 27.0134 21.8885 25.9418C22.5071 24.8703 22.8269 23.6523 22.8145 22.415C22.8021 21.1777 22.458 19.9664 21.818 18.9075V18.9012C21.5455 18.3843 21.4085 17.8067 21.4198 17.2225C21.431 16.6383 21.5902 16.0664 21.8824 15.5604C22.1746 15.0544 22.5903 14.6306 23.0906 14.3288C23.591 14.027 24.1597 13.857 24.7436 13.8346V13.827C26.2772 13.857 27.7772 13.3761 29.0076 12.4601C30.2379 11.5441 31.1287 10.2449 31.5398 8.76713C31.9509 7.28935 31.8589 5.71682 31.2783 4.29706C30.6977 2.87729 29.6614 1.6909 28.3327 0.924616C27.0039 0.158329 25.458 -0.144346 23.9384 0.0642302C22.4188 0.272806 21.0116 0.980791 19.9384 2.07675C18.8653 3.17271 18.187 4.59442 18.0104 6.11812C17.8338 7.64181 18.1689 9.18097 18.9629 10.4934C19.236 11.0104 19.3735 11.5884 19.3624 12.173C19.3514 12.7577 19.1923 13.33 18.8998 13.8365C18.6074 14.3429 18.1914 14.7669 17.6905 15.0687C17.1897 15.3706 16.6204 15.5405 16.036 15.5625C14.7987 15.5388 13.5776 15.8476 12.5002 16.4567C11.4229 17.0658 10.5287 17.9528 9.91107 19.0253C9.2934 20.0977 8.97486 21.3163 8.98868 22.5538C9.00249 23.7914 9.34816 25.0025 9.98962 26.0609C10.263 26.5786 10.4004 27.1572 10.389 27.7424C10.3776 28.3277 10.2178 28.9005 9.92448 29.4071C9.63121 29.9137 9.21409 30.3376 8.71223 30.6389C8.21038 30.9403 7.64021 31.1093 7.0552 31.13C5.52123 31.099 4.02051 31.579 2.78926 32.4945C1.55802 33.4099 0.66616 34.7088 0.254088 36.1867C-0.157985 37.6646 -0.0668744 39.2376 0.513077 40.6581C1.09303 42.0785 2.12889 43.2657 3.4576 44.0329C4.7863 44.8001 6.33241 45.1036 7.85253 44.8957C9.37266 44.6878 10.7805 43.9802 11.8544 42.8845C12.9283 41.7887 13.6073 40.3669 13.7845 38.8429C13.9618 37.3189 13.6272 35.7792 12.8334 34.4662L12.8359 34.4713Z" fill="url(#paint1_linear_9126_14787)"/>
<path d="M30.7711 34.5174C30.4693 33.9926 30.3107 33.3979 30.311 32.7925C30.3113 32.1872 30.4707 31.5926 30.773 31.0682C31.0754 30.5438 31.5102 30.1081 32.0339 29.8045C32.5576 29.501 33.1518 29.3404 33.7572 29.3387C33.8025 29.3387 33.8478 29.3387 33.8944 29.3387C35.4227 29.3384 36.9078 28.8318 38.1177 27.8982C39.3276 26.9646 40.1942 25.6565 40.5821 24.1783C40.9699 22.7001 40.8572 21.1351 40.2615 19.7277C39.6658 18.3203 38.6207 17.1499 37.2895 16.3994C35.9583 15.6488 34.4159 15.3603 32.9034 15.579C31.3909 15.7977 29.9934 16.5113 28.9294 17.6082C27.8653 18.7051 27.1945 20.1236 27.0219 21.6421C26.8493 23.1606 27.1845 24.6934 27.9752 26.0012C28.2774 26.5264 28.4363 27.1219 28.4358 27.7278C28.4354 28.3338 28.2757 28.929 27.9727 29.4538C27.6698 29.9786 27.2342 30.4145 26.7097 30.7179C26.1851 31.0213 25.5901 31.1815 24.9841 31.1824H24.8468C23.3199 31.1835 21.8363 31.6903 20.6279 32.6236C19.4194 33.557 18.5541 34.8642 18.1671 36.3413C17.7801 37.8183 17.8931 39.382 18.4887 40.788C19.0842 42.194 20.1286 43.3632 21.4588 44.1129C22.789 44.8626 24.33 45.1506 25.8412 44.932C27.3524 44.7134 28.7486 44.0004 29.8118 42.9045C30.875 41.8085 31.5452 40.3913 31.7179 38.8741C31.8905 37.357 31.5558 35.8254 30.7661 34.5186L30.7711 34.5174ZM29.7081 20.0102C30.1854 19.1804 30.898 18.5107 31.7558 18.0859C32.6137 17.6611 33.5782 17.5002 34.5275 17.6236C35.4768 17.747 36.3682 18.1491 37.0889 18.7791C37.8097 19.4091 38.3274 20.2387 38.5767 21.1629C38.8259 22.0872 38.7955 23.0646 38.4892 23.9715C38.183 24.8785 37.6146 25.6743 36.8561 26.2582C36.0976 26.8422 35.1829 27.1881 34.2278 27.2522C33.2727 27.3163 32.32 27.0957 31.4902 26.6183C30.3779 25.9781 29.5654 24.9223 29.2312 23.6832C28.8971 22.444 29.0686 21.1229 29.7081 20.0102ZM22.4451 42.2942C21.6151 41.8174 20.9451 41.1053 20.5199 40.2477C20.0946 39.3902 19.9331 38.4258 20.0559 37.4765C20.1787 36.5272 20.5802 35.6357 21.2097 34.9146C21.8392 34.1935 22.6683 33.6752 23.5923 33.4253C24.5163 33.1755 25.4937 33.2052 26.4008 33.5107C27.3079 33.8163 28.1041 34.3839 28.6886 35.1419C29.2731 35.8999 29.6197 36.8142 29.6846 37.7692C29.7495 38.7242 29.5298 39.677 29.0533 40.5071C28.7368 41.0584 28.3148 41.542 27.8114 41.9301C27.308 42.3183 26.733 42.6035 26.1194 42.7695C25.5057 42.9354 24.8654 42.9789 24.235 42.8973C23.6045 42.8158 22.9963 42.6108 22.4451 42.2942Z" fill="url(#paint2_linear_9126_14787)"/>
<defs>
<linearGradient id="paint0_linear_9126_14787" x1="37.9626" y1="42.9229" x2="47.7419" y2="33.1436" gradientUnits="userSpaceOnUse">
<stop stop-color="#E94B29"/>
<stop offset="0.76" stop-color="#E7236D"/>
</linearGradient>
<linearGradient id="paint1_linear_9126_14787" x1="-1.2632" y1="39.6487" x2="33.0771" y2="5.30711" gradientUnits="userSpaceOnUse">
<stop offset="0.25" stop-color="#E94B29"/>
<stop offset="1" stop-color="#E7236D"/>
</linearGradient>
<linearGradient id="paint2_linear_9126_14787" x1="3340.98" y1="9695.9" x2="8363.22" y2="5802.5" gradientUnits="userSpaceOnUse">
<stop offset="0.25" stop-color="#E94B29"/>
<stop offset="1" stop-color="#E7236D"/>
</linearGradient>
</defs>
</svg>