<svg xmlns="http://www.w3.org/2000/svg" width="87" height="33" viewBox="0 0 87 33" fill="none">
<path d="M30.6315 32.0343C33.3621 32.0343 35.5756 29.8335 35.5756 27.1187C35.5756 24.4039 33.3621 22.2031 30.6315 22.2031C27.901 22.2031 25.6875 24.4039 25.6875 27.1187C25.6875 29.8335 27.901 32.0343 30.6315 32.0343Z" fill="url(#paint0_linear_9553_1425)"/>
<path d="M9.17462 24.5734L9.17724 24.5691C8.79527 23.8477 8.78219 22.9529 9.22258 22.1943C9.66298 21.4356 10.4487 20.9995 11.2684 20.9674L11.2711 20.9631C13.0126 20.996 14.7192 20.1125 15.6523 18.5059C16.5845 16.9001 16.5017 14.9883 15.6017 13.5048L15.6043 13.5004C15.2224 12.779 15.2093 11.8843 15.6497 11.1256C16.0901 10.3669 16.8758 9.93082 17.6955 9.89874L17.699 9.89353C19.4397 9.92562 21.1454 9.0421 22.0777 7.43634C23.4433 5.08492 22.6323 2.07889 20.2681 0.721968C17.9031 -0.635819 14.8797 0.17053 13.5149 2.52108C12.5818 4.12771 12.6655 6.0404 13.5663 7.52391L13.5646 7.52651C13.9474 8.24876 13.9605 9.14441 13.5201 9.90307C13.0788 10.6626 12.2922 11.0987 11.4725 11.1299L11.4708 11.1334C9.72925 11.1005 8.02263 11.984 7.08952 13.5906C6.15728 15.1964 6.24013 17.1082 7.1401 18.5917L7.13835 18.5952C7.52119 19.3174 7.53427 20.2131 7.09388 20.9717C6.65262 21.7313 5.86601 22.1674 5.04628 22.1986L5.04453 22.2021C3.30302 22.1691 1.59639 23.0526 0.663287 24.6593C-0.702363 27.0107 0.108655 30.0167 2.47282 31.3736C4.83785 32.7314 7.86129 31.9251 9.22607 29.5745C10.1592 27.9688 10.0755 26.0569 9.17549 24.5734H9.17462Z" fill="url(#paint1_linear_9553_1425)"/>
<path d="M21.9953 24.6014V24.5996C21.5723 23.8653 21.5418 22.9323 21.9979 22.1459C22.4549 21.3595 23.2825 20.9199 24.1336 20.9173L24.1353 20.9139C24.1685 20.9139 24.2007 20.9165 24.2339 20.9165C26.9643 20.9165 29.1776 18.7159 29.1776 16.0012C29.1776 13.2865 26.9643 11.0859 24.2339 11.0859C21.5034 11.0859 19.2901 13.2865 19.2901 16.0012C19.2901 16.9324 19.5509 17.8029 20.0026 18.5442C20.4264 19.2803 20.4578 20.2133 20.0009 20.9997C19.5439 21.7861 18.7163 22.2257 17.8643 22.2283L17.8626 22.2318C17.8294 22.2318 17.7972 22.2292 17.764 22.2292C15.0336 22.2292 12.8203 24.4297 12.8203 27.1444C12.8203 29.8591 15.0336 32.0597 17.764 32.0597C20.4945 32.0597 22.7078 29.8591 22.7078 27.1444C22.7078 26.2132 22.447 25.3427 21.9953 24.6014ZM21.2357 14.2888C22.1871 12.6405 24.3028 12.0718 25.9606 13.0186C27.6184 13.9645 28.1904 16.068 27.2381 17.7162C26.2867 19.3645 24.1711 19.9332 22.5133 18.9864C20.8555 18.0405 20.2834 15.937 21.2357 14.2888ZM16.0426 30.1296C14.3848 29.1837 13.8127 27.0803 14.765 25.432C15.7164 23.7838 17.8321 23.215 19.4899 24.1618C21.1476 25.1077 21.7197 27.2112 20.7674 28.8594C19.816 30.5077 17.7004 31.0764 16.0426 30.1296Z" fill="url(#paint2_linear_9553_1425)"/>
<path d="M50.6354 18.7076C50.6354 21.5118 48.4097 22.9997 45.9346 22.9997C43.9584 22.9997 42.1741 22.1031 41.4258 20.2337L43.3061 19.1463C43.6898 20.2718 44.5916 20.8632 45.9346 20.8632C47.4504 20.8632 48.4289 20.0429 48.4289 18.7076C48.4289 17.3723 47.4504 16.5711 45.9346 16.5711H45.4358L44.5532 15.2548L47.4504 11.4587H41.8287V9.39844H50.0789V11.2679L47.3544 14.8542C49.1964 15.293 50.6354 16.6283 50.6354 18.7076Z" fill="white"/>
<path d="M52.3274 21.0329L57.009 16.2829C57.9683 15.3291 58.7166 14.3562 58.7166 13.3452C58.7166 12.0099 57.7956 11.285 56.6444 11.285C55.4932 11.285 54.6682 11.8763 54.1502 12.9446L52.2891 11.8572C53.1525 10.0259 54.8409 9.14844 56.6252 9.14844C58.8317 9.14844 60.923 10.6173 60.923 13.2689C60.923 14.9285 59.9253 16.3211 58.6398 17.6182L55.6083 20.6323H61.1725V22.7497H52.3274V21.0329Z" fill="white"/>
<path d="M63.0234 16.0731C63.0234 12.2006 65.959 9.14844 70.0457 9.14844C72.5016 9.14844 74.6889 10.3884 75.8209 12.3342L73.9022 13.4406C73.1923 12.1243 71.7342 11.285 70.0457 11.285C67.1486 11.285 65.2299 13.3261 65.2299 16.0731C65.2299 18.82 67.1486 20.8612 70.0457 20.8612C71.7342 20.8612 73.2115 20.0218 73.9022 18.7056L75.8209 19.7929C74.7081 21.7387 72.5208 22.9977 70.0457 22.9977C65.959 22.9977 63.0234 19.9455 63.0234 16.0731Z" fill="white"/>
<path d="M76.8711 17.978C76.8711 15.1356 79.1351 12.9609 81.9364 12.9609C84.7376 12.9609 87.0016 15.1356 87.0016 17.978C87.0016 20.8203 84.7568 22.995 81.9364 22.995C79.1159 22.995 76.8711 20.8012 76.8711 17.978ZM84.9295 17.978C84.9295 16.242 83.6248 14.9639 81.9364 14.9639C80.2479 14.9639 78.9432 16.242 78.9432 17.978C78.9432 19.7139 80.2479 20.992 81.9364 20.992C83.6248 20.992 84.9295 19.7139 84.9295 17.978Z" fill="white"/>
<defs>
<linearGradient id="paint0_linear_9553_1425" x1="27.1352" y1="30.594" x2="34.0875" y2="23.6024" gradientUnits="userSpaceOnUse">
<stop stop-color="#EC4B26"/>
<stop offset="0.76" stop-color="#EB1F6D"/>
</linearGradient>
<linearGradient id="paint1_linear_9553_1425" x1="-0.906426" y1="28.2531" x2="23.5047" y2="3.70149" gradientUnits="userSpaceOnUse">
<stop offset="0.25" stop-color="#EC4B26"/>
<stop offset="1" stop-color="#EB1F6D"/>
</linearGradient>
<linearGradient id="paint2_linear_9553_1425" x1="13.0837" y1="29.4438" x2="28.8237" y2="13.6126" gradientUnits="userSpaceOnUse">
<stop offset="0.25" stop-color="#EC4B26"/>
<stop offset="1" stop-color="#EB1F6D"/>
</linearGradient>
</defs>
</svg>