<svg xmlns="http://www.w3.org/2000/svg" id="viewUpperBtn" 
style="width:7rem;height:6rem;cursor:pointer;margin-bottom:-20px"
 viewBox="17.513311 -50.162562 135.43625 133.15872"> 
  <path stroke="none" d="M 27.537401,47.858537 C 23.298628,47.126832 19.907168,44.336428 18.208259,40.182769 L 17.615527,38.733599 L 17.541208,19.37514 C 17.457483,-2.433557 17.438893,-2.174304 19.368878,-6.113275 C 21.432277,-10.324534 25.724297,-13.722187 30.447818,-14.883596 C 32.608238,-15.414795 137.82489,-15.414795 139.98531,-14.883596 C 144.70904,-13.722136 149.00118,-10.324312 151.064,-6.113275 C 152.97479,-2.212591 152.94016,-2.709271 152.94513,20.874224 L 152.94956,41.908599 L 151.74206,43.446738 C 150.38854,45.170877 147.98227,46.85813 145.95803,47.502437 C 144.16532,48.073051 135.03878,48.321587 132.37526,47.872327 C 130.11858,47.491687 127.71523,46.396673 126.26922,45.090284 L 125.19773,44.122259 L 123.86164,45.17838 C 122.0667,46.597195 120.0533,47.51415 118.0021,47.846964 C 115.82654,48.199956 108.35511,48.20339 106.11864,47.852425 C 104.08437,47.53319 101.66317,46.417569 100.09937,45.07891 L 98.974894,44.116321 L 97.850424,45.080122 C 96.387334,46.334141 93.950384,47.479842 91.980994,47.839553 C 89.97825,48.205356 82.174799,48.208314 79.930032,47.84412 C 77.869856,47.509875 75.439529,46.394839 73.905628,45.080122 L 72.781149,44.116321 L 71.65667,45.07891 C 70.091861,46.418435 67.684507,47.524379 65.552,47.883411 C 64.406195,48.076318 61.845097,48.14034 58.540542,48.058679 C 52.425376,47.907565 51.052461,47.55836 48.258077,45.443297 L 46.55446,44.153834 L 45.314159,45.18541 C 42.435616,47.579537 40.203529,48.127981 33.490526,48.090593 C 30.871151,48.076004 28.192245,47.971578 27.537401,47.858537 Z M 40.644304,40.84618 C 41.582418,40.265748 42.135245,39.66272 42.673096,38.633155 C 43.401318,37.239179 43.4124,37.147742 43.4124,32.5337 C 43.4124,27.220891 43.143173,25.855466 41.652881,23.610063 C 37.900001,17.955643 29.296557,17.961836 25.538642,23.621665 C 24.036934,25.8834 23.833235,26.9408 23.833235,32.474407 C 23.833235,37.998504 24.085989,38.994295 25.844227,40.397225 C 27.42414,41.657869 28.054344,41.759649 33.909129,41.699739 L 39.354816,41.644015 Z M 65.18161,41.495814 C 66.482224,41.134632 67.977565,39.80518 68.58354,38.471286 C 68.994006,37.567749 69.066222,36.675027 69.071172,32.443136 C 69.077625,26.925878 68.837127,25.731058 67.258208,23.436177 C 65.627956,21.06669 62.208767,19.286724 59.2874,19.286724 C 56.263183,19.286724 52.994135,21.038343 51.26749,23.583944 C 49.639819,25.983624 49.45465,26.981051 49.547818,32.847168 L 49.630108,38.028444 L 50.425496,39.17477 C 50.945908,39.924798 51.716935,40.572641 52.655751,41.048703 C 54.072375,41.767054 54.154785,41.776288 59.136405,41.774831 C 61.911587,41.774021 64.63193,41.648463 65.18161,41.495814 Z M 91.848214,41.048703 C 92.787034,40.572641 93.558054,39.924798 94.078464,39.17477 L 94.873854,38.028444 L 94.956144,32.847168 C 95.049314,26.981051 94.864144,25.983624 93.236474,23.583944 C 91.50983,21.038343 88.240781,19.286724 85.216565,19.286724 C 82.192349,19.286724 78.9233,21.038343 77.196656,23.583944 C 75.568984,25.983624 75.383815,26.981051 75.476983,32.847168 L 75.559274,38.028444 L 76.354662,39.17477 C 76.875073,39.924798 77.646101,40.572641 78.584916,41.048703 C 80.005483,41.769055 80.071586,41.776307 85.216565,41.776307 C 90.361544,41.776307 90.427647,41.769055 91.848214,41.048703 Z M 117.77738,41.048703 C 118.71619,40.572641 119.48722,39.924798 120.00763,39.17477 L 120.80302,38.028444 L 120.88531,32.847168 C 120.97848,26.981051 120.79331,25.983624 119.16564,23.583944 C 117.43899,21.038343 114.16994,19.286724 111.14573,19.286724 C 108.1185,19.286724 104.60066,21.192288 103.00815,23.694725 C 101.49246,26.076448 101.31474,27.091827 101.40614,32.847168 L 101.48844,38.028444 L 102.28382,39.17477 C 102.80423,39.924798 103.57526,40.572641 104.51408,41.048703 C 105.93464,41.769055 106.00075,41.776307 111.14573,41.776307 C 116.29071,41.776307 116.35681,41.769055 117.77738,41.048703 Z M 143.70654,41.048703 C 144.64677,40.571921 145.4156,39.925475 145.9368,39.173447 L 146.73218,38.025796 V 32.426573 C 146.73218,27.60329 146.66493,26.663056 146.24687,25.641807 C 145.09075,22.81757 142.57295,20.519391 139.73885,19.701469 C 135.65467,18.522772 131.19563,20.222873 128.8491,23.853416 C 127.43844,26.035972 127.22645,27.324396 127.3294,33.089402 L 127.4176,38.028534 L 128.21299,39.174818 C 128.73337,39.924774 129.50448,40.572667 130.44324,41.048703 C 131.86381,41.769055 131.92991,41.776307 137.07489,41.776307 C 142.21987,41.776307 142.28597,41.769055 143.70654,41.048703 Z M 51.669564,15.234588 C 54.214353,13.724979 56.547568,13.103388 59.684275,13.09939 C 64.12819,13.093726 67.873652,14.626795 70.916138,17.696745 L 72.623,19.419016 L 74.524047,17.525213 C 77.581439,14.479468 81.0984,13.074197 85.61344,13.094223 C 89.796915,13.112781 93.602604,14.707472 96.607154,17.700899 L 98.340454,19.427779 L 99.597934,18.04576 C 101.29065,16.185406 103.69156,14.658374 106.25093,13.814297 C 108.92062,12.933843 112.76408,12.829153 115.24677,13.569269 C 117.90973,14.363128 120.39926,15.822011 122.2969,17.700714 L 124.05537,19.441627 L 125.25868,18.076798 C 126.87701,16.241249 129.04513,14.850691 131.77154,13.899678 C 133.69246,13.229632 134.42979,13.110606 136.67802,13.107632 C 138.13323,13.105709 139.85963,13.257527 140.51447,13.445005 C 141.9441,13.854305 144.54687,15.055103 145.7562,15.863294 L 146.63229,16.448788 L 146.54995,7.482861 L 146.4676,-1.483066 L 145.6145,-3.226438 C 144.11897,-6.282679 141.22011,-8.442402 137.83918,-9.019236 C 136.64794,-9.22248 120.7591,-9.285243 84.02594,-9.231807 L 31.903026,-9.155983 L 30.135713,-8.318703 C 27.81418,-7.218858 26.14099,-5.640325 25.138702,-3.60439 C 24.19215,-1.681669 24.207872,-1.912758 24.298157,8.750235 L 24.362401,16.337702 L 25.867816,15.43119 C 32.286276,11.566194 40.099823,12.479072 45.245264,17.69511 L 46.945837,19.419016 L 48.475345,17.820568 C 49.316575,16.941421 50.753974,15.77773 51.669564,15.234588 Z"></path></svg>