<svg xmlns="http://www.w3.org/2000/svg" id="viewLowerBtn" 
style="width:7rem;height:6rem;cursor:pointer;margin-bottom:-20px" viewBox="17.513311 -50.162562 135.43625 133.15872"> 
 <path stroke="none" d="M 31.903026,47.940683 C 25.708745,47.111593 20.516558,42.786783 18.343786,36.646583 L 17.615527,34.588543 L 17.539572,15.164703 C 17.487175,1.765453 17.554022,-4.694607 17.755091,-5.663157 C 18.730647,-10.362377 22.783682,-14.231928 27.537401,-15.002604 C 29.740952,-15.359844 35.892529,-15.362493 38.120734,-15.007162 C 40.257596,-14.666398 42.742628,-13.533433 44.158105,-12.254636 L 45.235398,-11.281366 L 46.571488,-12.337488 C 48.366424,-13.756302 50.379826,-14.673258 52.431022,-15.006072 C 54.606582,-15.359064 62.078015,-15.362498 64.314483,-15.011533 C 66.348761,-14.692298 68.769955,-13.576677 70.333753,-12.238018 L 71.458232,-11.275429 L 72.582711,-12.239229 C 74.116612,-13.553947 76.54694,-14.668983 78.607115,-15.003228 C 79.550177,-15.156231 82.226773,-15.281416 84.555107,-15.281416 C 86.88344,-15.281416 89.560036,-15.156231 90.503098,-15.003228 C 92.563274,-14.668983 94.993604,-13.553947 96.527504,-12.239229 L 97.651984,-11.275429 L 98.776464,-12.238018 C 100.34127,-13.577542 102.74862,-14.683487 104.88113,-15.042519 C 106.02693,-15.235426 108.58803,-15.299448 111.89258,-15.217787 C 118.00451,-15.066755 119.3811,-14.717137 122.16726,-12.608297 L 123.8631,-11.324726 L 125.24666,-12.451655 C 128.21735,-14.871312 130.67124,-15.400296 138.08633,-15.219501 C 142.4415,-15.113316 143.53508,-15.004665 144.77589,-14.554876 C 147.8898,-13.4261 150.0742,-11.45587 151.57735,-8.420287 L 152.55302,-6.449947 L 152.62719,13.320133 C 152.71008,35.414073 152.72145,35.244253 150.91312,38.918473 C 149.52605,41.736753 146.43118,44.855753 143.68947,46.198423 C 139.51467,48.242913 144.91048,48.063603 86.142607,48.110843 C 57.183962,48.134123 32.776151,48.057553 31.903026,47.940683 Z M 140.57713,40.998773 C 142.79543,39.902393 144.28251,38.449133 145.31817,36.365573 C 145.92829,35.138113 145.93972,34.965253 146.01719,25.791143 C 146.06051,20.661533 146.04517,16.464583 145.9831,16.464583 C 145.92103,16.464583 145.17839,16.881203 144.33278,17.390403 C 137.84634,21.296333 130.15016,20.370663 124.84912,15.046983 L 123.30582,13.497093 L 121.39123,15.311563 C 118.07223,18.457023 114.8975,19.746663 110.48427,19.742203 C 106.05294,19.737723 102.10737,18.100633 99.132394,15.032093 L 97.570094,13.420663 L 96.034604,15.019723 C 92.992384,18.187863 89.315895,19.735773 84.81969,19.741503 C 80.368308,19.747173 76.615263,18.210343 73.596616,15.145783 L 71.898541,13.421873 L 70.024741,15.300433 C 63.968791,21.371773 54.079775,21.300073 47.89681,15.139993 L 46.163514,13.413113 L 44.906026,14.795133 C 42.031099,17.954773 38.01533,19.693203 33.490526,19.736903 C 30.36934,19.767053 28.076112,19.140253 25.384928,17.521443 L 23.700943,16.508493 L 23.630956,24.739993 C 23.572323,31.636063 23.629468,33.209963 23.983198,34.441473 C 25.057659,38.182193 28.230089,41.083463 32.081962,41.847993 C 32.711151,41.972883 56.925583,42.057463 85.891811,42.035963 L 138.55767,41.996873 Z M 36.232756,13.056583 C 39.413008,12.066773 42.217582,9.120163 42.890308,6.061853 C 43.076986,5.213183 43.158318,2.808383 43.103728,-0.248507 L 43.015525,-5.187637 L 42.220138,-6.333927 C 41.699754,-7.083877 40.928648,-7.731777 39.989882,-8.207807 C 38.569316,-8.928157 38.503212,-8.935417 33.358234,-8.935417 C 28.213257,-8.935417 28.147152,-8.928157 26.726587,-8.207807 C 25.786351,-7.731027 25.017529,-7.084587 24.49633,-6.332557 L 23.700943,-5.184907 V 0.414323 C 23.700943,5.237603 23.768197,6.177833 24.186254,7.199083 C 26.181253,12.072563 31.338017,14.579993 36.232756,13.056583 Z M 62.183357,13.049913 C 65.229097,12.101973 67.661729,9.654963 68.67458,6.520313 C 69.030956,5.417383 69.094445,4.241523 69.026982,-0.006277 L 68.944691,-5.187547 L 68.149303,-6.333877 C 67.628891,-7.083907 66.857864,-7.731747 65.919048,-8.207807 C 64.498482,-8.928157 64.432378,-8.935417 59.2874,-8.935417 C 54.142421,-8.935417 54.076317,-8.928157 52.655751,-8.207807 C 51.716935,-7.731747 50.945908,-7.083907 50.425496,-6.333877 L 49.630108,-5.187547 L 49.547818,-0.006277 C 49.45465,5.859843 49.639819,6.857273 51.26749,9.256953 C 53.668552,12.796843 58.075926,14.328283 62.183357,13.049913 Z M 87.880522,13.139423 C 90.71462,12.321503 93.232424,10.023323 94.388544,7.199083 C 94.806604,6.177833 94.873854,5.237603 94.873854,0.414323 V -5.184907 L 94.078464,-6.332557 C 93.557274,-7.084587 92.788444,-7.731027 91.848214,-8.207807 C 90.427647,-8.928157 90.361544,-8.935417 85.216565,-8.935417 C 80.071586,-8.935417 80.005483,-8.928157 78.584916,-8.207807 C 77.646101,-7.731747 76.875073,-7.083907 76.354662,-6.333877 L 75.559274,-5.187547 L 75.476983,-0.006277 C 75.383815,5.859843 75.568984,6.857273 77.196656,9.256953 C 79.534636,12.703843 83.896942,14.289093 87.880522,13.139423 Z M 113.80968,13.139423 C 116.64378,12.321503 119.16158,10.023323 120.31771,7.199083 C 120.73577,6.177823 120.80302,5.237593 120.80302,0.413943 V -5.185667 L 120.00763,-6.332937 C 119.48666,-7.084387 118.7172,-7.731237 117.77738,-8.207807 C 116.36075,-8.926157 116.27834,-8.935397 111.29672,-8.933937 C 108.52154,-8.933127 105.8012,-8.807567 105.25152,-8.654917 C 103.9509,-8.293737 102.45556,-6.964287 101.84959,-5.630397 C 101.43912,-4.726857 101.3669,-3.834137 101.36195,0.397753 C 101.35703,4.605803 101.43282,5.583463 101.85765,6.792173 C 103.62352,11.816413 108.82414,14.578253 113.80968,13.139423 Z M 139.73885,13.127453 C 142.629,12.269293 145.08848,10.028863 146.24687,7.199083 C 146.66493,6.177823 146.73218,5.237593 146.73218,0.413943 V -5.185667 L 145.9368,-6.332937 C 145.415,-7.085577 144.64142,-7.735357 143.68784,-8.221977 L 142.23427,-8.963747 L 136.67802,-8.883437 C 130.64863,-8.796287 130.33249,-8.727997 128.76412,-7.174047 C 127.42044,-5.842707 127.28531,-5.162087 127.28531,0.274453 C 127.28531,3.805253 127.39442,5.630513 127.65778,6.505613 C 129.18339,11.574823 134.72966,14.614823 139.73885,13.127453 Z"></path></svg>