<svg xmlns="http://www.w3.org/2000/svg" id="viewFrontBtn" 
style="width:7rem;height:6rem;cursor:pointer;margin-bottom:5px"
 viewBox="17.513311 -50.162562 135.43625 133.15872">  <path stroke="none" d="M 31.903026,82.821836 C 25.708745,81.992746 20.516558,77.667936 18.343786,71.527736 L 17.615527,69.469696 L 17.539572,50.045856 C 17.487175,36.646606 17.554022,30.186546 17.755091,29.217996 C 18.730647,24.518776 22.783682,20.649225 27.537401,19.878549 C 29.740952,19.521309 35.892529,19.51866 38.120734,19.873991 C 40.257596,20.214755 42.742628,21.34772 44.158105,22.626517 L 45.235398,23.599787 L 46.571488,22.543665 C 48.366424,21.124851 50.379826,20.207895 52.431022,19.875081 C 54.606582,19.522089 62.078015,19.518655 64.314483,19.86962 C 66.348761,20.188855 68.769955,21.304476 70.333753,22.643135 L 71.458232,23.605724 L 72.582711,22.641924 C 74.116612,21.327206 76.54694,20.21217 78.607115,19.877925 C 79.550177,19.724922 82.226773,19.599737 84.555107,19.599737 C 86.88344,19.599737 89.560036,19.724922 90.503098,19.877925 C 92.563274,20.21217 94.993604,21.327206 96.527504,22.641924 L 97.651984,23.605724 L 98.776464,22.643135 C 100.34127,21.303611 102.74862,20.197666 104.88113,19.838634 C 106.02693,19.645727 108.58803,19.581705 111.89258,19.663366 C 118.00451,19.814398 119.3811,20.164016 122.16726,22.272856 L 123.8631,23.556427 L 125.24666,22.429498 C 128.21735,20.009841 130.67124,19.480857 138.08633,19.661652 C 142.4415,19.767837 143.53508,19.876488 144.77589,20.326277 C 147.8898,21.455053 150.0742,23.425283 151.57735,26.460866 L 152.55302,28.431206 L 152.62719,48.201286 C 152.71008,70.295226 152.72145,70.125406 150.91312,73.799626 C 149.52605,76.617906 146.43118,79.736906 143.68947,81.079576 C 139.51467,83.124066 144.91048,82.944756 86.142607,82.991996 C 57.183962,83.015276 32.776151,82.938706 31.903026,82.821836 Z M 140.57713,75.879926 C 142.79543,74.783546 144.28251,73.330286 145.31817,71.246726 C 145.92829,70.019266 145.93972,69.846406 146.01719,60.672296 C 146.06051,55.542686 146.04517,51.345736 145.9831,51.345736 C 145.92103,51.345736 145.17839,51.762356 144.33278,52.271556 C 137.84634,56.177486 130.15016,55.251816 124.84912,49.928136 L 123.30582,48.378246 L 121.39123,50.192716 C 118.07223,53.338176 114.8975,54.627816 110.48427,54.623356 C 106.05294,54.618876 102.10737,52.981786 99.132394,49.913246 L 97.570094,48.301816 L 96.034604,49.900876 C 92.992384,53.069016 89.315895,54.616926 84.81969,54.622656 C 80.368308,54.628326 76.615263,53.091496 73.596616,50.026936 L 71.898541,48.303026 L 70.024741,50.181586 C 63.968791,56.252926 54.079775,56.181226 47.89681,50.021146 L 46.163514,48.294266 L 44.906026,49.676286 C 42.031099,52.835926 38.01533,54.574356 33.490526,54.618056 C 30.36934,54.648206 28.076112,54.021406 25.384928,52.402596 L 23.700943,51.389646 L 23.630956,59.621146 C 23.572323,66.517216 23.629468,68.091116 23.983198,69.322626 C 25.057659,73.063346 28.230089,75.964616 32.081962,76.729146 C 32.711151,76.854036 56.925583,76.938616 85.891811,76.917116 L 138.55767,76.878026 Z M 36.232756,47.937736 C 39.413008,46.947926 42.217582,44.001316 42.890308,40.943006 C 43.076986,40.094336 43.158318,37.689536 43.103728,34.632646 L 43.015525,29.693516 L 42.220138,28.547226 C 41.699754,27.797276 40.928648,27.149376 39.989882,26.673346 C 38.569316,25.952996 38.503212,25.945736 33.358234,25.945736 C 28.213257,25.945736 28.147152,25.952996 26.726587,26.673346 C 25.786351,27.150126 25.017529,27.796566 24.49633,28.548596 L 23.700943,29.696246 V 35.295476 C 23.700943,40.118756 23.768197,41.058986 24.186254,42.080236 C 26.181253,46.953716 31.338017,49.461146 36.232756,47.937736 Z M 62.183357,47.931066 C 65.229097,46.983126 67.661729,44.536116 68.67458,41.401466 C 69.030956,40.298536 69.094445,39.122676 69.026982,34.874876 L 68.944691,29.693606 L 68.149303,28.547276 C 67.628891,27.797246 66.857864,27.149406 65.919048,26.673346 C 64.498482,25.952996 64.432378,25.945736 59.2874,25.945736 C 54.142421,25.945736 54.076317,25.952996 52.655751,26.673346 C 51.716935,27.149406 50.945908,27.797246 50.425496,28.547276 L 49.630108,29.693606 L 49.547818,34.874876 C 49.45465,40.740996 49.639819,41.738426 51.26749,44.138106 C 53.668552,47.677996 58.075926,49.209436 62.183357,47.931066 Z M 87.880522,48.020576 C 90.71462,47.202656 93.232424,44.904476 94.388544,42.080236 C 94.806604,41.058986 94.873854,40.118756 94.873854,35.295476 V 29.696246 L 94.078464,28.548596 C 93.557274,27.796566 92.788444,27.150126 91.848214,26.673346 C 90.427647,25.952996 90.361544,25.945736 85.216565,25.945736 C 80.071586,25.945736 80.005483,25.952996 78.584916,26.673346 C 77.646101,27.149406 76.875073,27.797246 76.354662,28.547276 L 75.559274,29.693606 L 75.476983,34.874876 C 75.383815,40.740996 75.568984,41.738426 77.196656,44.138106 C 79.534636,47.584996 83.896942,49.170246 87.880522,48.020576 Z M 113.80968,48.020576 C 116.64378,47.202656 119.16158,44.904476 120.31771,42.080236 C 120.73577,41.058976 120.80302,40.118746 120.80302,35.295096 V 29.695486 L 120.00763,28.548216 C 119.48666,27.796766 118.7172,27.149916 117.77738,26.673346 C 116.36075,25.954996 116.27834,25.945756 111.29672,25.947216 C 108.52154,25.948026 105.8012,26.073586 105.25152,26.226236 C 103.9509,26.587416 102.45556,27.916866 101.84959,29.250756 C 101.43912,30.154296 101.3669,31.047016 101.36195,35.278906 C 101.35703,39.486956 101.43282,40.464616 101.85765,41.673326 C 103.62352,46.697566 108.82414,49.459406 113.80968,48.020576 Z M 139.73885,48.008606 C 142.629,47.150446 145.08848,44.910016 146.24687,42.080236 C 146.66493,41.058976 146.73218,40.118746 146.73218,35.295096 V 29.695486 L 145.9368,28.548216 C 145.415,27.795576 144.64142,27.145796 143.68784,26.659176 L 142.23427,25.917406 L 136.67802,25.997716 C 130.64863,26.084866 130.33249,26.153156 128.76412,27.707106 C 127.42044,29.038446 127.28531,29.719066 127.28531,35.155606 C 127.28531,38.686406 127.39442,40.511666 127.65778,41.386766 C 129.18339,46.455976 134.72966,49.495976 139.73885,48.008606 Z M 27.537401,12.97797 C 23.298628,12.246265 19.907168,9.4558607 18.208259,5.3022017 L 17.615527,3.8530317 L 17.541208,-15.505427 C 17.457483,-37.314124 17.438893,-37.054871 19.368878,-40.993842 C 21.432277,-45.205101 25.724297,-48.602754 30.447818,-49.764163 C 32.608238,-50.295362 137.82489,-50.295362 139.98531,-49.764163 C 144.70904,-48.602703 149.00118,-45.204879 151.064,-40.993842 C 152.97479,-37.093158 152.94016,-37.589838 152.94513,-14.006343 L 152.94956,7.0280317 L 151.74206,8.5661707 C 150.38854,10.29031 147.98227,11.977563 145.95803,12.62187 C 144.16532,13.192484 135.03878,13.44102 132.37526,12.99176 C 130.11858,12.61112 127.71523,11.516106 126.26922,10.209717 L 125.19773,9.2416917 L 123.86164,10.297813 C 122.0667,11.716628 120.0533,12.633583 118.0021,12.966397 C 115.82654,13.319389 108.35511,13.322823 106.11864,12.971858 C 104.08437,12.652623 101.66317,11.537002 100.09937,10.198343 L 98.974894,9.2357537 L 97.850424,10.199555 C 96.387334,11.453574 93.950384,12.599275 91.980994,12.958986 C 89.97825,13.324789 82.174799,13.327747 79.930032,12.963553 C 77.869856,12.629308 75.439529,11.514272 73.905628,10.199555 L 72.781149,9.2357537 L 71.65667,10.198343 C 70.091861,11.537868 67.684507,12.643812 65.552,13.002844 C 64.406195,13.195751 61.845097,13.259773 58.540542,13.178112 C 52.425376,13.026998 51.052461,12.677793 48.258077,10.56273 L 46.55446,9.2732667 L 45.314159,10.304843 C 42.435616,12.69897 40.203529,13.247414 33.490526,13.210026 C 30.871151,13.195437 28.192245,13.091011 27.537401,12.97797 Z M 40.644304,5.9656127 C 41.582418,5.3851807 42.135245,4.7821527 42.673096,3.7525877 C 43.401318,2.3586117 43.4124,2.2671747 43.4124,-2.3468673 C 43.4124,-7.6596763 43.143173,-9.0251013 41.652881,-11.270504 C 37.900001,-16.924924 29.296557,-16.918731 25.538642,-11.258902 C 24.036934,-8.9971673 23.833235,-7.9397673 23.833235,-2.4061603 C 23.833235,3.1179367 24.085989,4.1137277 25.844227,5.5166577 C 27.42414,6.7773017 28.054344,6.8790817 33.909129,6.8191717 L 39.354816,6.7634477 Z M 65.18161,6.6152467 C 66.482224,6.2540647 67.977565,4.9246127 68.58354,3.5907187 C 68.994006,2.6871817 69.066222,1.7944597 69.071172,-2.4374313 C 69.077625,-7.9546893 68.837127,-9.1495093 67.258208,-11.44439 C 65.627956,-13.813877 62.208767,-15.593843 59.2874,-15.593843 C 56.263183,-15.593843 52.994135,-13.842224 51.26749,-11.296623 C 49.639819,-8.8969433 49.45465,-7.8995163 49.547818,-2.0333993 L 49.630108,3.1478767 L 50.425496,4.2942027 C 50.945908,5.0442307 51.716935,5.6920737 52.655751,6.1681357 C 54.072375,6.8864867 54.154785,6.8957207 59.136405,6.8942637 C 61.911587,6.8934537 64.63193,6.7678957 65.18161,6.6152467 Z M 91.848214,6.1681357 C 92.787034,5.6920737 93.558054,5.0442307 94.078464,4.2942027 L 94.873854,3.1478767 L 94.956144,-2.0333993 C 95.049314,-7.8995163 94.864144,-8.8969433 93.236474,-11.296623 C 91.50983,-13.842224 88.240781,-15.593843 85.216565,-15.593843 C 82.192349,-15.593843 78.9233,-13.842224 77.196656,-11.296623 C 75.568984,-8.8969433 75.383815,-7.8995163 75.476983,-2.0333993 L 75.559274,3.1478767 L 76.354662,4.2942027 C 76.875073,5.0442307 77.646101,5.6920737 78.584916,6.1681357 C 80.005483,6.8884877 80.071586,6.8957397 85.216565,6.8957397 C 90.361544,6.8957397 90.427647,6.8884877 91.848214,6.1681357 Z M 117.77738,6.1681357 C 118.71619,5.6920737 119.48722,5.0442307 120.00763,4.2942027 L 120.80302,3.1478767 L 120.88531,-2.0333993 C 120.97848,-7.8995163 120.79331,-8.8969433 119.16564,-11.296623 C 117.43899,-13.842224 114.16994,-15.593843 111.14573,-15.593843 C 108.1185,-15.593843 104.60066,-13.688279 103.00815,-11.185842 C 101.49246,-8.8041193 101.31474,-7.7887403 101.40614,-2.0333993 L 101.48844,3.1478767 L 102.28382,4.2942027 C 102.80423,5.0442307 103.57526,5.6920737 104.51408,6.1681357 C 105.93464,6.8884877 106.00075,6.8957397 111.14573,6.8957397 C 116.29071,6.8957397 116.35681,6.8884877 117.77738,6.1681357 Z M 143.70654,6.1681357 C 144.64677,5.6913537 145.4156,5.0449077 145.9368,4.2928797 L 146.73218,3.1452287 V -2.4539943 C 146.73218,-7.2772773 146.66493,-8.2175113 146.24687,-9.2387603 C 145.09075,-12.062997 142.57295,-14.361176 139.73885,-15.179098 C 135.65467,-16.357795 131.19563,-14.657694 128.8491,-11.027151 C 127.43844,-8.8445953 127.22645,-7.5561713 127.3294,-1.7911653 L 127.4176,3.1479667 L 128.21299,4.2942507 C 128.73337,5.0442067 129.50448,5.6920997 130.44324,6.1681357 C 131.86381,6.8884877 131.92991,6.8957397 137.07489,6.8957397 C 142.21987,6.8957397 142.28597,6.8884877 143.70654,6.1681357 Z M 51.669564,-19.645979 C 54.214353,-21.155588 56.547568,-21.777179 59.684275,-21.781177 C 64.12819,-21.786841 67.873652,-20.253772 70.916138,-17.183822 L 72.623,-15.461551 L 74.524047,-17.355354 C 77.581439,-20.401099 81.0984,-21.80637 85.61344,-21.786344 C 89.796915,-21.767786 93.602604,-20.173095 96.607154,-17.179668 L 98.340454,-15.452788 L 99.597934,-16.834807 C 101.29065,-18.695161 103.69156,-20.222193 106.25093,-21.06627 C 108.92062,-21.946724 112.76408,-22.051414 115.24677,-21.311298 C 117.90973,-20.517439 120.39926,-19.058556 122.2969,-17.179853 L 124.05537,-15.43894 L 125.25868,-16.803769 C 126.87701,-18.639318 129.04513,-20.029876 131.77154,-20.980889 C 133.69246,-21.650935 134.42979,-21.769961 136.67802,-21.772935 C 138.13323,-21.774858 139.85963,-21.62304 140.51447,-21.435562 C 141.9441,-21.026262 144.54687,-19.825464 145.7562,-19.017273 L 146.63229,-18.431779 L 146.54995,-27.397706 L 146.4676,-36.363633 L 145.6145,-38.107005 C 144.11897,-41.163246 141.22011,-43.322969 137.83918,-43.899803 C 136.64794,-44.103047 120.7591,-44.16581 84.02594,-44.112374 L 31.903026,-44.03655 L 30.135713,-43.19927 C 27.81418,-42.099425 26.14099,-40.520892 25.138702,-38.484957 C 24.19215,-36.562236 24.207872,-36.793325 24.298157,-26.130332 L 24.362401,-18.542865 L 25.867816,-19.449377 C 32.286276,-23.314373 40.099823,-22.401495 45.245264,-17.185457 L 46.945837,-15.461551 L 48.475345,-17.059999 C 49.316575,-17.939146 50.753974,-19.102837 51.669564,-19.645979 Z"></path></svg>