<svg width="32" height="30" viewBox="0 0 32 30" fill="none" xmlns="http://www.w3.org/2000/svg">
<path d="M28.1408 9.66777C28.1523 9.48173 28.16 9.29442 28.16 9.10583C28.16 4.0846 24.1395 0 19.2 0C15.6365 0 12.4237 2.162 11.0042 5.44527C10.5447 5.28527 10.0749 5.20333 9.6 5.20333C7.31263 5.20333 5.4195 6.95425 5.15712 9.25802C2.18237 9.85254 0 12.4919 0 15.61C0 19.1964 2.87106 22.1142 6.4 22.1142H12.16C12.5132 22.1142 12.8 21.8228 12.8 21.4638C12.8 21.1048 12.5132 20.8133 12.16 20.8133H6.4C3.57631 20.8133 1.28 18.4796 1.28 15.61C1.28 12.9706 3.23837 10.7592 5.83681 10.4678C6.16062 10.4314 6.4 10.088 6.4 9.75625C6.4 7.96373 7.83619 6.50417 9.6 6.50417C10.0928 6.50417 10.5856 6.63165 11.0631 6.88273C11.2269 6.97121 11.4202 6.97902 11.5942 6.91004C11.7657 6.84113 11.9002 6.69802 11.9616 6.52113C13.0406 3.39906 15.9501 1.30083 19.2 1.30083C23.4355 1.30083 26.88 4.8014 26.88 9.10583C26.88 9.41542 26.8569 9.71986 26.8224 10.0203C26.7878 10.3247 26.9658 10.6121 27.2512 10.711C29.3261 11.4343 30.72 13.4025 30.72 15.61C30.72 18.4796 28.4237 20.8133 25.6 20.8133H19.84C19.4867 20.8133 19.2 21.1048 19.2 21.4638C19.2 21.8228 19.4867 22.1142 19.84 22.1142H25.6C29.1289 22.1142 32 19.1964 32 15.61C32 13.0188 30.4691 10.6915 28.1408 9.66777Z" fill="#09263D"/>
<path d="M15.9994 11.707C15.6461 11.707 15.3594 11.9632 15.3594 12.2787V29.4283C15.3594 29.7439 15.6461 30 15.9994 30C16.3526 30 16.6394 29.7439 16.6394 29.4283V12.2787C16.6394 11.9632 16.3526 11.707 15.9994 11.707Z" fill="#09263D"/>
<path d="M21.5704 17.1026L16.4504 11.8993C16.2008 11.6456 15.7951 11.6456 15.5455 11.8993L10.4255 17.1026C10.1759 17.3563 10.1759 17.7686 10.4255 18.0223C10.6751 18.2759 11.0809 18.2759 11.3304 18.0223L15.9973 13.2794L20.6642 18.0236C20.7896 18.1498 20.9534 18.2135 21.1173 18.2135C21.2812 18.2135 21.445 18.1498 21.5704 18.0223C21.8201 17.7686 21.8201 17.3563 21.5704 17.1026Z" fill="#09263D"/>
</svg>
